<svg width="734" height="334" viewBox="0 0 734 334" fill="none" xmlns="http://www.w3.org/2000/svg">
<rect x="421.5" y="22.6733" width="31.8898" height="31.8898" stroke="#727272"/>
<rect x="459.421" y="22.6733" width="31.8898" height="31.8898" stroke="#727272"/>
<rect x="497.342" y="22.6733" width="31.8898" height="31.8898" stroke="#727272"/>
<rect x="535.264" y="22.6733" width="31.8898" height="31.8898" stroke="#727272"/>
<rect x="573.185" y="22.6733" width="31.8898" height="31.8898" stroke="#727272"/>
<rect x="611.106" y="22.6733" width="31.8898" height="31.8898" stroke="#727272"/>
<rect x="421.5" y="60.5945" width="31.8898" height="31.8898" stroke="#727272"/>
<rect x="459.421" y="60.5945" width="31.8898" height="31.8898" stroke="#727272"/>
<rect x="497.342" y="60.5945" width="31.8898" height="31.8898" stroke="#727272"/>
<rect x="535.264" y="60.5945" width="31.8898" height="31.8898" stroke="#727272"/>
<rect x="573.185" y="60.5945" width="31.8898" height="31.8898" stroke="#727272"/>
<rect x="611.106" y="60.5945" width="31.8898" height="31.8898" stroke="#727272"/>
<rect x="421.5" y="98.6889" width="31.8898" height="31.8898" stroke="#727272"/>
<rect x="459.421" y="98.6889" width="31.8898" height="31.8898" stroke="#727272"/>
<rect x="497.342" y="98.6889" width="31.8898" height="31.8898" stroke="#727272"/>
<rect x="535.264" y="98.6889" width="31.8898" height="31.8898" stroke="#727272"/>
<rect x="573.185" y="98.6889" width="31.8898" height="31.8898" stroke="#727272"/>
<rect x="611.106" y="98.6889" width="31.8898" height="31.8898" stroke="#727272"/>
<rect x="421.5" y="136.61" width="31.8898" height="31.8898" stroke="#727272"/>
<rect x="459.421" y="136.61" width="31.8898" height="31.8898" stroke="#727272"/>
<rect x="497.342" y="136.61" width="31.8898" height="31.8898" stroke="#727272"/>
<rect x="535.264" y="136.61" width="31.8898" height="31.8898" stroke="#727272"/>
<rect x="573.185" y="136.61" width="31.8898" height="31.8898" stroke="#727272"/>
<rect x="611.106" y="136.61" width="31.8898" height="31.8898" stroke="#727272"/>
<path d="M428.483 49L435.791 28.28H439.235L446.571 49H443.659L441.923 44.044H433.131L431.395 49H428.483ZM433.971 41.58H441.083L437.527 31.416L433.971 41.58Z" fill="#F7F7F7"/>
<path d="M468.432 49V28.28H476.412C477.738 28.28 478.867 28.5227 479.8 29.008C480.752 29.4747 481.48 30.1093 481.984 30.912C482.488 31.696 482.74 32.5547 482.74 33.488C482.74 34.5147 482.554 35.3453 482.18 35.98C481.807 36.6147 481.387 37.1 480.92 37.436C480.454 37.7533 480.08 37.968 479.8 38.08V38.248C480.248 38.3787 480.762 38.6307 481.34 39.004C481.938 39.3587 482.451 39.872 482.88 40.544C483.31 41.216 483.524 42.0933 483.524 43.176C483.524 44.128 483.291 45.052 482.824 45.948C482.358 46.844 481.62 47.5813 480.612 48.16C479.604 48.72 478.27 49 476.608 49H468.432ZM476.3 30.66H471.176V37.268H476.3C477.196 37.268 477.915 37.1093 478.456 36.792C479.016 36.4747 479.418 36.064 479.66 35.56C479.922 35.0373 480.052 34.5053 480.052 33.964C480.052 33.404 479.922 32.872 479.66 32.368C479.418 31.864 479.016 31.4533 478.456 31.136C477.915 30.8187 477.196 30.66 476.3 30.66ZM476.524 39.48H471.176V46.62H476.524C477.551 46.62 478.372 46.452 478.988 46.116C479.604 45.7613 480.052 45.3133 480.332 44.772C480.631 44.212 480.78 43.6333 480.78 43.036C480.78 42.4387 480.631 41.8693 480.332 41.328C480.052 40.7867 479.604 40.348 478.988 40.012C478.372 39.6573 477.551 39.48 476.524 39.48Z" fill="#F7F7F7"/>
<path d="M514.205 49.28C512.581 49.28 511.153 48.9813 509.921 48.384C508.689 47.768 507.662 46.956 506.841 45.948C506.038 44.9213 505.432 43.7827 505.021 42.532C504.61 41.2627 504.405 39.9653 504.405 38.64C504.405 37.3147 504.61 36.0173 505.021 34.748C505.432 33.4787 506.038 32.34 506.841 31.332C507.662 30.3053 508.689 29.4933 509.921 28.896C511.153 28.2987 512.581 28 514.205 28C515.549 28 516.697 28.1773 517.649 28.532C518.62 28.868 519.422 29.3067 520.057 29.848C520.71 30.3893 521.233 30.968 521.625 31.584C522.036 32.2 522.334 32.7787 522.521 33.32C522.726 33.8613 522.857 34.3093 522.913 34.664C522.988 35 523.025 35.168 523.025 35.168H520.281C520.281 35.168 520.244 35.0187 520.169 34.72C520.094 34.4027 519.945 34.02 519.721 33.572C519.497 33.1053 519.161 32.6387 518.713 32.172C518.265 31.7053 517.677 31.3227 516.949 31.024C516.221 30.7067 515.316 30.548 514.233 30.548C513.057 30.548 512.03 30.7813 511.153 31.248C510.276 31.696 509.538 32.312 508.941 33.096C508.362 33.8613 507.924 34.7293 507.625 35.7C507.345 36.652 507.205 37.632 507.205 38.64C507.205 39.648 507.345 40.6373 507.625 41.608C507.924 42.56 508.362 43.428 508.941 44.212C509.538 44.9773 510.276 45.5933 511.153 46.06C512.03 46.508 513.057 46.732 514.233 46.732C515.316 46.732 516.221 46.5733 516.949 46.256C517.677 45.9387 518.265 45.556 518.713 45.108C519.161 44.6413 519.497 44.184 519.721 43.736C519.945 43.2693 520.094 42.8773 520.169 42.56C520.244 42.2427 520.281 42.084 520.281 42.084H523.025C523.025 42.084 522.988 42.2613 522.913 42.616C522.857 42.952 522.726 43.4 522.521 43.96C522.334 44.5013 522.036 45.08 521.625 45.696C521.233 46.2933 520.71 46.872 520.057 47.432C519.422 47.9733 518.62 48.4213 517.649 48.776C516.697 49.112 515.549 49.28 514.205 49.28Z" fill="#F7F7F7"/>
<path d="M543.151 49V28.28H549.871C551.532 28.28 552.979 28.5787 554.211 29.176C555.443 29.7547 556.469 30.5387 557.291 31.528C558.112 32.5173 558.728 33.628 559.139 34.86C559.549 36.092 559.755 37.352 559.755 38.64C559.755 39.928 559.549 41.188 559.139 42.42C558.728 43.652 558.112 44.7627 557.291 45.752C556.469 46.7413 555.443 47.5347 554.211 48.132C552.979 48.7107 551.532 49 549.871 49H543.151ZM549.759 30.688H545.895V46.592H549.759C550.972 46.592 552.027 46.368 552.923 45.92C553.837 45.472 554.593 44.8747 555.191 44.128C555.807 43.3627 556.264 42.504 556.563 41.552C556.861 40.6 557.011 39.6293 557.011 38.64C557.011 37.6507 556.861 36.68 556.563 35.728C556.264 34.776 555.807 33.9267 555.191 33.18C554.593 32.4147 553.837 31.808 552.923 31.36C552.027 30.912 550.972 30.688 549.759 30.688Z" fill="#F7F7F7"/>
<path d="M582.749 49V28.28H595.909V30.688H585.493V37.24H594.621V39.648H585.493V46.592H596.049V49H582.749Z" fill="#F7F7F7"/>
<path d="M620.666 49V28.28H634.33V30.688H623.41V37.52H633.042V39.928H623.41V49H620.666Z" fill="#F7F7F7"/>
<rect x="511.5" y="184.673" width="31.8898" height="31.8898" stroke="#727272"/>
<rect x="549.421" y="184.673" width="31.8898" height="31.8898" stroke="#727272"/>
<rect x="587.342" y="184.673" width="31.8898" height="31.8898" stroke="#727272"/>
<rect x="625.264" y="184.673" width="31.8898" height="31.8898" stroke="#727272"/>
<rect x="663.185" y="184.673" width="31.8898" height="31.8898" stroke="#727272"/>
<rect x="701.106" y="184.673" width="31.8898" height="31.8898" stroke="#727272"/>
<rect x="511.5" y="222.595" width="31.8898" height="31.8898" stroke="#727272"/>
<rect x="549.421" y="222.595" width="31.8898" height="31.8898" stroke="#727272"/>
<rect x="587.342" y="222.595" width="31.8898" height="31.8898" stroke="#727272"/>
<rect x="625.264" y="222.595" width="31.8898" height="31.8898" stroke="#727272"/>
<rect x="663.185" y="222.594" width="31.8898" height="31.8898" stroke="#727272"/>
<rect x="701.106" y="222.594" width="31.8898" height="31.8898" stroke="#727272"/>
<rect x="511.5" y="260.689" width="31.8898" height="31.8898" stroke="#727272"/>
<rect x="549.421" y="260.689" width="31.8898" height="31.8898" stroke="#727272"/>
<rect x="587.342" y="260.689" width="31.8898" height="31.8898" stroke="#727272"/>
<rect x="625.264" y="260.689" width="31.8898" height="31.8898" stroke="#727272"/>
<rect x="663.185" y="260.689" width="31.8898" height="31.8898" stroke="#727272"/>
<rect x="701.106" y="260.689" width="31.8898" height="31.8898" stroke="#727272"/>
<rect x="511.5" y="298.61" width="31.8898" height="31.8898" stroke="#727272"/>
<rect x="549.421" y="298.61" width="31.8898" height="31.8898" stroke="#727272"/>
<rect x="587.342" y="298.61" width="31.8898" height="31.8898" stroke="#727272"/>
<rect x="625.264" y="298.61" width="31.8898" height="31.8898" stroke="#727272"/>
<rect x="663.185" y="298.61" width="31.8898" height="31.8898" stroke="#727272"/>
<rect x="701.106" y="298.61" width="31.8898" height="31.8898" stroke="#727272"/>
<path d="M529.845 190.28V211H527.157V194.928L523.265 194.956V193.388L523.965 193.164C524.954 192.847 525.748 192.501 526.345 192.128C526.961 191.755 527.53 191.241 528.053 190.588L528.305 190.28H529.845Z" fill="#F7F7F7"/>
<path d="M558.775 211V209.068L563.311 204.868C564.58 203.692 565.691 202.665 566.643 201.788C567.614 200.892 568.37 200.024 568.911 199.184C569.452 198.344 569.723 197.42 569.723 196.412C569.723 195.572 569.518 194.863 569.107 194.284C568.715 193.705 568.202 193.267 567.567 192.968C566.951 192.651 566.307 192.492 565.635 192.492C564.758 192.492 564.039 192.641 563.479 192.94C562.919 193.239 562.49 193.612 562.191 194.06C561.892 194.489 561.678 194.928 561.547 195.376C561.416 195.805 561.342 196.169 561.323 196.468C561.304 196.767 561.295 196.916 561.295 196.916H558.663C558.663 196.916 558.672 196.748 558.691 196.412C558.71 196.076 558.775 195.647 558.887 195.124C559.018 194.601 559.223 194.051 559.503 193.472C559.783 192.875 560.175 192.315 560.679 191.792C561.202 191.269 561.864 190.84 562.667 190.504C563.488 190.168 564.487 190 565.663 190C566.858 190 567.968 190.252 568.995 190.756C570.04 191.241 570.88 191.96 571.515 192.912C572.15 193.845 572.467 194.993 572.467 196.356C572.467 197.607 572.15 198.745 571.515 199.772C570.899 200.78 570.078 201.769 569.051 202.74C568.024 203.711 566.904 204.756 565.691 205.876L562.835 208.508H572.915V211H558.775Z" fill="#F7F7F7"/>
<path d="M603.578 211.28C602.365 211.28 601.208 211.047 600.106 210.58C599.024 210.113 598.137 209.404 597.446 208.452C596.774 207.481 596.438 206.259 596.438 204.784H599.042C599.042 205.736 599.257 206.52 599.686 207.136C600.134 207.752 600.704 208.209 601.394 208.508C602.104 208.807 602.832 208.956 603.578 208.956C604.381 208.956 605.118 208.807 605.79 208.508C606.462 208.191 607.004 207.733 607.414 207.136C607.825 206.539 608.03 205.82 608.03 204.98C608.03 203.879 607.666 203.011 606.938 202.376C606.21 201.723 605.24 201.396 604.026 201.396H601.226V199.24H604.026C605.034 199.24 605.893 198.941 606.602 198.344C607.33 197.747 607.694 196.935 607.694 195.908C607.694 195.161 607.498 194.527 607.106 194.004C606.733 193.463 606.229 193.043 605.594 192.744C604.978 192.445 604.306 192.296 603.578 192.296C602.888 192.296 602.216 192.455 601.562 192.772C600.928 193.071 600.405 193.528 599.994 194.144C599.584 194.76 599.378 195.544 599.378 196.496H596.83C596.83 195.04 597.157 193.836 597.81 192.884C598.482 191.913 599.332 191.195 600.358 190.728C601.404 190.243 602.496 190 603.634 190C604.792 190 605.874 190.233 606.882 190.7C607.909 191.148 608.74 191.801 609.374 192.66C610.009 193.5 610.326 194.508 610.326 195.684C610.326 196.804 610.046 197.756 609.486 198.54C608.926 199.305 608.217 199.856 607.358 200.192V200.332C608.348 200.668 609.16 201.237 609.794 202.04C610.429 202.843 610.746 203.851 610.746 205.064C610.746 206.352 610.41 207.463 609.738 208.396C609.066 209.329 608.189 210.048 607.106 210.552C606.024 211.037 604.848 211.28 603.578 211.28Z" fill="#F7F7F7"/>
<path d="M634.242 200.332V198.036H647.962V200.332H634.242ZM634.242 206.52V204.224H647.962V206.52H634.242Z" fill="#F7F7F7"/>
<path d="M680.927 211V206.184L670.791 206.156V203.664L680.311 190.28H683.671V203.804H687.283V206.184H683.671V211H680.927ZM673.619 203.804H680.927V193.5L673.619 203.804Z" fill="#F7F7F7"/>
<path d="M717.143 211.28C715.967 211.28 714.959 211.131 714.119 210.832C713.298 210.515 712.616 210.113 712.075 209.628C711.552 209.143 711.132 208.629 710.815 208.088C710.516 207.547 710.292 207.033 710.143 206.548C710.012 206.063 709.928 205.671 709.891 205.372C709.854 205.055 709.835 204.896 709.835 204.896H712.411C712.411 204.896 712.43 205.036 712.467 205.316C712.504 205.577 712.598 205.913 712.747 206.324C712.915 206.716 713.167 207.117 713.503 207.528C713.839 207.92 714.296 208.256 714.875 208.536C715.472 208.797 716.228 208.928 717.143 208.928C718.226 208.928 719.122 208.695 719.831 208.228C720.54 207.761 721.072 207.164 721.427 206.436C721.782 205.708 721.959 204.943 721.959 204.14C721.959 203.319 721.782 202.535 721.427 201.788C721.072 201.023 720.54 200.407 719.831 199.94C719.14 199.455 718.282 199.212 717.255 199.212C716.452 199.212 715.78 199.343 715.239 199.604C714.698 199.865 714.268 200.164 713.951 200.5C713.652 200.836 713.438 201.135 713.307 201.396C713.176 201.657 713.111 201.788 713.111 201.788H710.423L712.047 190.28H723.191V192.716H714.091L713.251 198.652H713.335C713.559 198.409 713.839 198.157 714.175 197.896C714.53 197.616 714.987 197.383 715.547 197.196C716.107 196.991 716.807 196.888 717.647 196.888C719.178 196.888 720.456 197.243 721.483 197.952C722.51 198.643 723.284 199.539 723.807 200.64C724.348 201.723 724.619 202.871 724.619 204.084C724.619 204.98 724.46 205.857 724.143 206.716C723.844 207.575 723.387 208.349 722.771 209.04C722.155 209.712 721.38 210.253 720.447 210.664C719.514 211.075 718.412 211.28 717.143 211.28Z" fill="#F7F7F7"/>
<rect y="51" width="29.6875" height="29.6875" fill="#3A3A3A"/>
<rect x="34.4375" y="51" width="29.6875" height="29.6875" fill="#3A3A3A"/>
<rect x="68.875" y="51" width="29.6875" height="29.6875" fill="#C7C54C"/>
<rect x="103.312" y="51" width="29.6875" height="29.6875" fill="#3A3A3A"/>
<rect x="68.875" y="85.4375" width="29.6875" height="29.6875" fill="#3A3A3A"/>
<rect x="34.4375" y="85.4375" width="29.6875" height="29.6875" fill="#50A654"/>
<rect y="85.4375" width="29.6875" height="29.6875" fill="#C7C54C"/>
<rect x="103.312" y="85.4375" width="29.6875" height="29.6875" fill="#C7C54C"/>
<rect x="68.875" y="119.875" width="29.6875" height="29.6875" fill="#C7C54C"/>
<rect x="103.312" y="119.875" width="29.6875" height="29.6875" fill="#50A654"/>
<rect x="137.75" y="119.875" width="29.6875" height="29.6875" fill="#50A654"/>
<rect x="34.4375" y="119.875" width="29.6875" height="29.6875" fill="#50A654"/>
<rect y="119.875" width="29.6875" height="29.6875" fill="#3A3A3A"/>
<rect x="68.875" y="154.312" width="29.6875" height="29.6875" fill="#50A654"/>
<rect x="103.312" y="154.312" width="29.6875" height="29.6875" fill="#50A654"/>
<rect x="137.75" y="154.312" width="29.6875" height="29.6875" fill="#50A654"/>
<rect x="34.4375" y="154.312" width="29.6875" height="29.6875" fill="#50A654"/>
<rect y="154.312" width="29.6875" height="29.6875" fill="#50A654"/>
<rect x="137.75" y="85.4375" width="29.6875" height="29.6875" fill="#3A3A3A"/>
<rect x="137.75" y="51" width="29.6875" height="29.6875" fill="#3A3A3A"/>
<rect x="69" y="201" width="29.6875" height="29.6875" fill="#3A3A3A"/>
<rect x="103.438" y="201" width="29.6875" height="29.6875" fill="#3A3A3A"/>
<rect x="137.875" y="201" width="29.6875" height="29.6875" fill="#C7C54C"/>
<rect x="172.312" y="201" width="29.6875" height="29.6875" fill="#3A3A3A"/>
<rect x="137.875" y="235.438" width="29.6875" height="29.6875" fill="#3A3A3A"/>
<rect x="103.438" y="235.438" width="29.6875" height="29.6875" fill="#3A3A3A"/>
<rect x="69" y="235.438" width="29.6875" height="29.6875" fill="#C7C54C"/>
<rect x="172.312" y="235.438" width="29.6875" height="29.6875" fill="#C7C54C"/>
<rect x="137.875" y="269.875" width="29.6875" height="29.6875" fill="#C7C54C"/>
<rect x="172.312" y="269.875" width="29.6875" height="29.6875" fill="#3A3A3A"/>
<rect x="206.75" y="269.875" width="29.6875" height="29.6875" fill="#C7C54C"/>
<rect x="103.438" y="269.875" width="29.6875" height="29.6875" fill="#50A654"/>
<rect x="69" y="269.875" width="29.6875" height="29.6875" fill="#50A654"/>
<rect x="137.875" y="304.312" width="29.6875" height="29.6875" fill="#50A654"/>
<rect x="172.312" y="304.312" width="29.6875" height="29.6875" fill="#50A654"/>
<rect x="206.75" y="304.312" width="29.6875" height="29.6875" fill="#50A654"/>
<rect x="103.438" y="304.312" width="29.6875" height="29.6875" fill="#50A654"/>
<rect x="69" y="304.312" width="29.6875" height="29.6875" fill="#50A654"/>
<rect x="206.75" y="235.438" width="29.6875" height="29.6875" fill="#C7C54C"/>
<rect x="206.75" y="201" width="29.6875" height="29.6875" fill="#3A3A3A"/>
<rect x="241" y="269.875" width="29.6875" height="29.6875" fill="#50A654"/>
<rect x="241" y="304.312" width="29.6875" height="29.6875" fill="#50A654"/>
<rect x="241" y="235.438" width="29.6875" height="29.6875" fill="#50A654"/>
<rect x="241" y="201" width="29.6875" height="29.6875" fill="#3A3A3A"/>
<rect x="202" width="29.6875" height="29.6875" fill="#3A3A3A"/>
<rect x="236.688" width="29.6875" height="29.6875" fill="#3A3A3A"/>
<rect x="271.375" width="29.6875" height="29.6875" fill="#3A3A3A"/>
<rect x="306.062" width="29.6875" height="29.6875" fill="#3A3A3A"/>
<rect x="271.375" y="35" width="29.6875" height="29.6875" fill="#C7C54C"/>
<rect x="236.688" y="35" width="29.6875" height="29.6875" fill="#3A3A3A"/>
<rect x="202" y="35" width="29.6875" height="29.6875" fill="#C7C54C"/>
<rect x="306.062" y="35" width="29.6875" height="29.6875" fill="#3A3A3A"/>
<rect x="271.375" y="70" width="29.6875" height="29.6875" fill="#C7C54C"/>
<rect x="306.062" y="70" width="29.6875" height="29.6875" fill="#3A3A3A"/>
<rect x="236.688" y="70" width="29.6875" height="29.6875" fill="#50A654"/>
<rect x="202" y="70" width="29.6875" height="29.6875" fill="#3A3A3A"/>
<rect x="271.375" y="105" width="29.6875" height="29.6875" fill="#50A654"/>
<rect x="306.062" y="105" width="29.6875" height="29.6875" fill="#50A654"/>
<rect x="236.688" y="105" width="29.6875" height="29.6875" fill="#50A654"/>
<rect x="202" y="105" width="29.6875" height="29.6875" fill="#3A3A3A"/>
<rect x="271.375" y="140" width="29.6875" height="29.6875" fill="#50A654"/>
<rect x="306.062" y="140" width="29.6875" height="29.6875" fill="#50A654"/>
<rect x="236.688" y="140" width="29.6875" height="29.6875" fill="#50A654"/>
<rect x="202" y="140" width="29.6875" height="29.6875" fill="#50A654"/>
</svg>
