<svg width="669" height="218" viewBox="0 0 669 218" fill="none" xmlns="http://www.w3.org/2000/svg">
<rect x="452" y="5" width="149" height="6" fill="#757575"/>
<rect x="622" y="5" width="47" height="6" fill="#AEAEAE"/>
<rect x="622" y="28" width="47" height="6" fill="#AEAEAE"/>
<rect x="622" y="51" width="47" height="6" fill="#AEAEAE"/>
<rect x="622" y="74" width="47" height="6" fill="#AEAEAE"/>
<circle cx="436" cy="8" r="8" fill="#F9E217"/>
<rect x="452" y="28" width="91" height="6" fill="#757575"/>
<rect x="452" y="51" width="128" height="6" fill="#757575"/>
<rect x="452" y="74" width="108" height="6" fill="#757575"/>
<rect x="452" y="97" width="149" height="6" fill="#757575"/>
<rect x="622" y="97" width="47" height="6" fill="#AEAEAE"/>
<rect x="622" y="120" width="47" height="6" fill="#AEAEAE"/>
<rect x="622" y="143" width="47" height="6" fill="#AEAEAE"/>
<rect x="622" y="166" width="47" height="6" fill="#AEAEAE"/>
<rect x="452" y="120" width="91" height="6" fill="#757575"/>
<rect x="452" y="143" width="128" height="6" fill="#757575"/>
<rect x="452" y="166" width="108" height="6" fill="#757575"/>
<rect x="622" y="189" width="47" height="6" fill="#AEAEAE"/>
<rect x="622" y="212" width="47" height="6" fill="#AEAEAE"/>
<rect x="452" y="189" width="128" height="6" fill="#757575"/>
<rect x="452" y="212" width="108" height="6" fill="#757575"/>
<circle cx="436" cy="31" r="8" fill="#D0D0D0"/>
<circle cx="436" cy="54" r="8" fill="#C68D38"/>
<path d="M311 105.5C309.067 105.5 307.5 107.067 307.5 109C307.5 110.933 309.067 112.5 311 112.5V105.5ZM377.475 111.475C378.842 110.108 378.842 107.892 377.475 106.525L355.201 84.2513C353.834 82.8844 351.618 82.8844 350.251 84.2513C348.884 85.6181 348.884 87.8342 350.251 89.201L370.05 109L350.251 128.799C348.884 130.166 348.884 132.382 350.251 133.749C351.618 135.116 353.834 135.116 355.201 133.749L377.475 111.475ZM311 112.5H375V105.5H311V112.5Z" fill="#3E3E43"/>
<rect y="7" width="45.7589" height="45.7589" fill="#3A3A3A"/>
<rect x="53.0804" y="7" width="45.7589" height="45.7589" fill="#3A3A3A"/>
<rect x="106.161" y="7" width="45.7589" height="45.7589" fill="#3A3A3A"/>
<rect x="159.241" y="7" width="45.7589" height="45.7589" fill="#C7C54C"/>
<rect x="106.161" y="60.0804" width="45.7589" height="45.7589" fill="#50A654"/>
<rect x="53.0804" y="60.0804" width="45.7589" height="45.7589" fill="#3A3A3A"/>
<rect y="60.0804" width="45.7589" height="45.7589" fill="#C7C54C"/>
<rect x="159.241" y="60.0804" width="45.7589" height="45.7589" fill="#3A3A3A"/>
<rect x="106.161" y="113.161" width="45.7589" height="45.7589" fill="#50A654"/>
<rect x="159.241" y="113.161" width="45.7589" height="45.7589" fill="#3A3A3A"/>
<rect x="212.321" y="113.161" width="45.7589" height="45.7589" fill="#50A654"/>
<rect x="53.0804" y="113.161" width="45.7589" height="45.7589" fill="#50A654"/>
<rect y="113.161" width="45.7589" height="45.7589" fill="#50A654"/>
<rect x="106.161" y="166.241" width="45.7589" height="45.7589" fill="#50A654"/>
<rect x="159.241" y="166.241" width="45.7589" height="45.7589" fill="#50A654"/>
<rect x="212.321" y="166.241" width="45.7589" height="45.7589" fill="#50A654"/>
<rect x="53.0804" y="166.241" width="45.7589" height="45.7589" fill="#50A654"/>
<rect y="166.241" width="45.7589" height="45.7589" fill="#50A654"/>
<rect x="212.321" y="60.0804" width="45.7589" height="45.7589" fill="#3A3A3A"/>
<rect x="212.321" y="7" width="45.7589" height="45.7589" fill="#50A654"/>
</svg>
